# xmcd
# 
# Track frame offsets:
#     150
#     15824
#     32244
#     42569
#     57671
#     68627
#     80803
#     97662
#     115601
#     139181
#     153161
#     173047
#     192789
#     226240
#     240531
# 
# Disc length: 3542
# 
# Revision: 0
# Processed by: cddbd v1.5.2PL0 Copyright (c) Steve Scherf et al.
# Submitted via: fre:ac v1.0.17
# 
DISCID=b50dd40f
DTITLE=Kris Kristofferson with Rita Coolidge and their Band - Let the music play
DYEAR=1972
DGENRE=Country
TTITLE0=Duvalier's dream
TTITLE1=When I loved her
TTITLE2=Jesus was a capricorn
TTITLE3=Same old song
TTITLE4=Band introduction
TTITLE5=Smile at me again
TTITLE6=Loving her was easier
TTITLE7=Casey's last ride
TTITLE8=Billy Dee
TTITLE9=Sunday morning coming down
TTITLE10=Jesus song
TTITLE11=A woman left lonely
TTITLE12=Everybody loves a winner
TTITLE13=Help me make it through the night
TTITLE14=My crew
EXTD=
EXTT0=
EXTT1=
EXTT2=
EXTT3=
EXTT4=
EXTT5=
EXTT6=
EXTT7=
EXTT8=
EXTT9=
EXTT10=
EXTT11=
EXTT12=
EXTT13=
EXTT14=
PLAYORDER=
